<svg width="294" height="492" viewBox="0 0 294 492" fill="none" xmlns="http://www.w3.org/2000/svg" style="">
<path d="M268.781 16.7265C269.343 38.0731 227.535 51.8436 189.649 69.3414C164.445 80.9821 139.489 93.1766 111.359 104.215C95.0582 110.612 86.5727 120.698 86.7747 128.379C86.8004 129.354 89.1146 134.302 86.949 135.006C85.5151 135.472 75.4829 129.092 74.8278 128.722C58.2097 119.355 46.9489 107.666 41.4879 96.9815C33.121 80.611 18.4406 59.6498 62.5466 45.3189C81.0246 39.315 98.3795 36.2473 121.231 32.0924C139.016 28.8586 135.799 23.7463 141.057 18.7983" stroke="#086DCA" stroke-opacity="0.2" stroke-width="50" class="GUSqYjlx_0"></path>
<path d="M268.781 16.7265C269.343 38.0731 227.535 51.8436 189.649 69.3414C164.445 80.9821 139.489 93.1766 111.359 104.215C95.0582 110.612 86.5727 120.698 86.7747 128.379C86.8004 129.354 89.1146 134.302 86.949 135.006C85.5151 135.472 75.4829 129.092 74.8278 128.722C58.2097 119.355 46.9489 107.666 41.4879 96.9815C33.121 80.611 18.4406 59.6498 62.5466 45.3189C81.0246 39.315 98.3795 36.2473 121.231 32.0924C139.016 28.8586 135.799 23.7463 141.057 18.7983" stroke="url(#paint0_linear_301_115)" stroke-opacity="0.2" stroke-width="50" class="GUSqYjlx_1"></path>
<path d="M267.505 30.2793C268.165 55.4071 229.583 71.3609 194.653 91.7254C171.415 105.273 148.41 119.474 122.462 132.296C107.426 139.726 99.643 151.545 99.8808 160.587C99.911 161.735 102.085 167.573 100.086 168.388C98.7626 168.927 89.4401 161.357 88.8317 160.918C73.3971 149.793 62.9029 135.967 57.7804 123.358C49.932 104.04 36.213 79.2796 76.918 62.6802C93.9713 55.7259 110.005 52.2206 131.116 47.4691C147.547 43.771 144.537 37.7344 149.368 31.9426" stroke="url(#paint1_linear_301_115)" stroke-opacity="0.2" stroke-width="50" class="GUSqYjlx_2"></path>
<path d="M267.505 30.2793C268.165 55.4071 229.583 71.3609 194.653 91.7254C171.415 105.273 148.41 119.474 122.462 132.296C107.426 139.726 99.643 151.545 99.8808 160.587C99.911 161.735 102.085 167.573 100.086 168.388C98.7626 168.927 89.4401 161.357 88.8317 160.918C73.3971 149.793 62.9029 135.967 57.7804 123.358C49.932 104.04 36.213 79.2796 76.918 62.6802C93.9713 55.7259 110.005 52.2206 131.116 47.4691C147.547 43.771 144.537 37.7344 149.368 31.9426" stroke="url(#paint2_linear_301_115)" stroke-opacity="0.2" stroke-width="50" class="GUSqYjlx_3"></path>
<path d="M268.2 299.829C228.236 298.348 203.565 320.422 171.816 340.148C150.694 353.272 128.53 366.23 108.611 380.984C97.0689 389.534 78.4179 393.613 64.0375 393.08C62.2113 393.012 52.8906 391.477 51.6308 392.62C50.7966 393.378 63.0008 399.207 63.7091 399.585C81.6762 409.175 103.847 415.967 123.987 419.537C154.843 425.006 194.456 434.176 220.115 410.878C230.865 401.118 236.15 391.809 243.324 379.559C248.908 370.025 258.56 372.062 267.682 369.463" stroke="#E7922E" stroke-opacity="0.08" stroke-width="50" class="GUSqYjlx_4"></path>
<path d="M268.2 299.829C228.236 298.348 203.565 320.422 171.816 340.148C150.694 353.272 128.53 366.23 108.611 380.984C97.0689 389.534 78.4179 393.613 64.0375 393.08C62.2113 393.012 52.8906 391.477 51.6308 392.62C50.7966 393.378 63.0008 399.207 63.7091 399.585C81.6762 409.175 103.847 415.967 123.987 419.537C154.843 425.006 194.456 434.176 220.115 410.878C230.865 401.118 236.15 391.809 243.324 379.559C248.908 370.025 258.56 372.062 267.682 369.463" stroke="url(#paint3_linear_301_115)" stroke-opacity="0.2" stroke-width="50" class="GUSqYjlx_5"></path>
<path d="M267.651 29.4598C220.337 35.9131 195.629 67.1293 162.133 97.0193C139.85 116.904 116.306 136.807 95.7577 158.377C83.8505 170.876 62.7027 179.538 45.6769 181.861C43.5149 182.156 32.2464 182.25 30.9879 183.864C30.1547 184.933 45.6571 189.332 46.5646 189.635C69.5848 197.306 97.0037 200.799 121.401 200.892C158.781 201.034 207.19 203.762 232.82 170.892C243.558 157.122 247.953 145.009 253.996 129.023C258.699 116.581 270.456 117.013 280.68 112.06" stroke="#E7922E" stroke-opacity="0.08" stroke-width="45" class="GUSqYjlx_6"></path>
<path d="M267.651 29.4598C220.337 35.9131 195.629 67.1293 162.133 97.0193C139.85 116.904 116.306 136.807 95.7577 158.377C83.8505 170.876 62.7027 179.538 45.6769 181.861C43.5149 182.156 32.2464 182.25 30.9879 183.864C30.1547 184.933 45.6571 189.332 46.5646 189.635C69.5848 197.306 97.0037 200.799 121.401 200.892C158.781 201.034 207.19 203.762 232.82 170.892C243.558 157.122 247.953 145.009 253.996 129.023C258.699 116.581 270.456 117.013 280.68 112.06" stroke="url(#paint4_linear_301_115)" stroke-opacity="0.2" stroke-width="45" class="GUSqYjlx_7"></path>
<path d="M267.651 29.4598C220.337 35.9131 195.629 67.1293 162.133 97.0193C139.85 116.904 116.306 136.807 95.7577 158.377C83.8505 170.876 62.7027 179.538 45.6769 181.861C43.5149 182.156 32.2464 182.25 30.9879 183.864C30.1547 184.933 45.6571 189.332 46.5646 189.635C69.5848 197.306 97.0037 200.799 121.401 200.892C158.781 201.034 207.19 203.762 232.82 170.892C243.558 157.122 247.953 145.009 253.996 129.023C258.699 116.581 270.456 117.013 280.68 112.06" stroke="url(#paint5_linear_301_115)" stroke-width="45" class="GUSqYjlx_8"></path>
<path d="M12.7587 280.709C50.2096 275.601 76.1544 299.9 108.477 320.805C129.98 334.713 152.444 348.336 173.014 364.291C184.934 373.537 202.999 376.85 216.475 375.012C218.187 374.779 226.775 372.166 228.102 373.426C228.981 374.261 218.204 382.243 217.584 382.754C201.843 395.708 181.799 405.673 163.273 411.619C134.888 420.73 98.7118 434.991 71.6858 409.312C60.3634 398.554 54.2431 387.879 45.9814 373.848C39.5514 362.929 30.7128 366.169 21.8037 363.827" stroke="#FF8D06" stroke-opacity="0.01" stroke-width="45" class="GUSqYjlx_9"></path>
<path d="M12.7587 280.709C50.2096 275.601 76.1544 299.9 108.477 320.805C129.98 334.713 152.444 348.336 173.014 364.291C184.934 373.537 202.999 376.85 216.475 375.012C218.187 374.779 226.775 372.166 228.102 373.426C228.981 374.261 218.204 382.243 217.584 382.754C201.843 395.708 181.799 405.673 163.273 411.619C134.888 420.73 98.7118 434.991 71.6858 409.312C60.3634 398.554 54.2431 387.879 45.9814 373.848C39.5514 362.929 30.7128 366.169 21.8037 363.827" stroke="url(#paint6_linear_301_115)" stroke-opacity="0.2" stroke-width="45" class="GUSqYjlx_10"></path>
<path d="M12.7587 280.709C50.2096 275.601 76.1544 299.9 108.477 320.805C129.98 334.713 152.444 348.336 173.014 364.291C184.934 373.537 202.999 376.85 216.475 375.012C218.187 374.779 226.775 372.166 228.102 373.426C228.981 374.261 218.204 382.243 217.584 382.754C201.843 395.708 181.799 405.673 163.273 411.619C134.888 420.73 98.7118 434.991 71.6858 409.312C60.3634 398.554 54.2431 387.879 45.9814 373.848C39.5514 362.929 30.7128 366.169 21.8037 363.827" stroke="url(#paint7_linear_301_115)" stroke-width="45" class="GUSqYjlx_11"></path>
<path d="M269.311 49.2039C221.997 55.6573 195.662 74.392 160.687 92.9323C137.419 105.266 112.9 117.688 91.2553 130.845C78.7127 138.47 57.2272 144.543 40.2014 146.865C38.0394 147.16 26.8552 147.901 25.5124 148.868C24.6234 149.509 39.7453 150.989 40.6279 151.1C63.0164 153.926 90.0127 154.177 114.21 152.737C151.283 150.53 199.147 149.076 226.494 129.372C237.951 121.117 243.019 114.165 249.948 104.975C255.34 97.8222 266.978 97.3418 277.41 93.9842" stroke="#E7922E" stroke-opacity="0.08" stroke-width="35" class="GUSqYjlx_12"></path>
<path d="M269.311 49.2039C221.997 55.6573 195.662 74.392 160.687 92.9323C137.419 105.266 112.9 117.688 91.2553 130.845C78.7127 138.47 57.2272 144.543 40.2014 146.865C38.0394 147.16 26.8552 147.901 25.5124 148.868C24.6234 149.509 39.7453 150.989 40.6279 151.1C63.0164 153.926 90.0127 154.177 114.21 152.737C151.283 150.53 199.147 149.076 226.494 129.372C237.951 121.117 243.019 114.165 249.948 104.975C255.34 97.8222 266.978 97.3418 277.41 93.9842" stroke="url(#paint8_linear_301_115)" stroke-opacity="0.2" stroke-width="35" class="GUSqYjlx_13"></path>
<path d="M269.311 49.2039C221.997 55.6573 195.662 74.392 160.687 92.9323C137.419 105.266 112.9 117.688 91.2553 130.845C78.7127 138.47 57.2272 144.543 40.2014 146.865C38.0394 147.16 26.8552 147.901 25.5124 148.868C24.6234 149.509 39.7453 150.989 40.6279 151.1C63.0164 153.926 90.0127 154.177 114.21 152.737C151.283 150.53 199.147 149.076 226.494 129.372C237.951 121.117 243.019 114.165 249.948 104.975C255.34 97.8222 266.978 97.3418 277.41 93.9842" stroke="url(#paint9_linear_301_115)" stroke-width="35" class="GUSqYjlx_14"></path>
<path d="M267.305 335.141C256.211 335.141 247.586 337.315 237.941 340.883C217.317 348.511 197.57 356.763 178.357 365.726C158.062 375.193 140.638 387.101 119.088 395.4C102.815 401.667 82.8441 402.036 65.9536 407.168C57.9665 409.594 49.5581 411.424 41.5966 413.933C37.2621 415.298 32.6364 416.258 29.5985 418.651C27.4776 420.322 28.2986 423.302 26.802 425.189C25.4776 426.858 23.8883 428.48 22.9229 430.305" stroke="#C29C9C" stroke-opacity="0.37" stroke-width="50" class="GUSqYjlx_15"></path>
<path d="M267.305 335.141C256.211 335.141 247.586 337.315 237.941 340.883C217.317 348.511 197.57 356.763 178.357 365.726C158.062 375.193 140.638 387.101 119.088 395.4C102.815 401.667 82.8441 402.036 65.9536 407.168C57.9665 409.594 49.5581 411.424 41.5966 413.933C37.2621 415.298 32.6364 416.258 29.5985 418.651C27.4776 420.322 28.2986 423.302 26.802 425.189C25.4776 426.858 23.8883 428.48 22.9229 430.305" stroke="url(#paint10_linear_301_115)" stroke-opacity="0.2" stroke-width="50" class="GUSqYjlx_16"></path>
<path d="M275.5 96.1082C264.406 96.1082 255.781 98.2823 246.136 101.85C225.512 109.478 205.766 117.729 186.552 126.692C166.258 136.159 148.834 148.068 127.283 156.367C111.011 162.634 91.0394 163.003 74.1489 168.135C66.1618 170.561 57.7534 172.391 49.7919 174.9C45.4574 176.265 40.8317 177.225 37.7938 179.618C35.6729 181.289 36.4939 184.269 34.9973 186.156C33.6729 187.825 32.0836 189.447 31.1182 191.272" stroke="url(#paint11_linear_301_115)" stroke-width="70" class="GUSqYjlx_17"></path>
<path d="M275.5 96.1082C264.406 96.1082 255.781 98.2823 246.136 101.85C225.512 109.478 205.766 117.729 186.552 126.692C166.258 136.159 148.834 148.068 127.283 156.367C111.011 162.634 91.0394 163.003 74.1489 168.135C66.1618 170.561 57.7534 172.391 49.7919 174.9C45.4574 176.265 40.8317 177.225 37.7938 179.618C35.6729 181.289 36.4939 184.269 34.9973 186.156C33.6729 187.825 32.0836 189.447 31.1182 191.272" stroke="url(#paint12_linear_301_115)" stroke-opacity="0.2" stroke-width="70" class="GUSqYjlx_18"></path>
<path d="M22.9219 410.073C33.6777 410.073 42.0394 407.077 51.3903 402.162C71.3856 391.65 90.5301 380.28 109.158 367.93C128.834 354.885 145.726 338.475 166.62 327.039C182.396 318.404 201.759 317.896 218.134 310.824C225.878 307.48 234.03 304.959 241.749 301.502C245.951 299.621 250.436 298.298 253.381 295.001C255.437 292.699 254.641 288.591 256.092 285.992C257.376 283.692 258.917 281.457 259.853 278.942" stroke="url(#paint13_linear_301_115)" stroke-width="50" class="GUSqYjlx_19"></path>
<path d="M22.9219 410.073C33.6777 410.073 42.0394 407.077 51.3903 402.162C71.3856 391.65 90.5301 380.28 109.158 367.93C128.834 354.885 145.726 338.475 166.62 327.039C182.396 318.404 201.759 317.896 218.134 310.824C225.878 307.48 234.03 304.959 241.749 301.502C245.951 299.621 250.436 298.298 253.381 295.001C255.437 292.699 254.641 288.591 256.092 285.992C257.376 283.692 258.917 281.457 259.853 278.942" stroke="url(#paint14_linear_301_115)" stroke-opacity="0.2" stroke-width="50" class="GUSqYjlx_20"></path>
<path d="M265.301 424.902C264.457 417.955 258.518 413.213 249.116 408.253C229.011 397.647 207.459 387.779 184.218 378.46C159.67 368.617 129.407 361.309 107.602 350.326C91.1366 342.033 88.7214 329.64 74.9668 320.616C68.4625 316.349 63.3772 311.638 56.6761 307.412C53.0278 305.111 50.3441 302.505 44.2981 301.327C40.0772 300.504 32.8965 301.92 28.1991 301.554C24.0423 301.229 19.9799 300.725 15.4714 300.673" stroke="#C29C9C" stroke-opacity="0.37" stroke-width="45" class="GUSqYjlx_21"></path>
<path d="M265.301 424.902C264.457 417.955 258.518 413.213 249.116 408.253C229.011 397.647 207.459 387.779 184.218 378.46C159.67 368.617 129.407 361.309 107.602 350.326C91.1366 342.033 88.7214 329.64 74.9668 320.616C68.4625 316.349 63.3772 311.638 56.6761 307.412C53.0278 305.111 50.3441 302.505 44.2981 301.327C40.0772 300.504 32.8965 301.92 28.1991 301.554C24.0423 301.229 19.9799 300.725 15.4714 300.673" stroke="url(#paint15_linear_301_115)" stroke-opacity="0.2" stroke-width="45" class="GUSqYjlx_22"></path>
<path d="M263.579 135.822C262.99 130.972 257.365 127.845 248.373 124.684C229.146 117.925 208.486 111.733 186.162 105.986C162.582 99.9151 133.352 95.8218 112.482 88.8562C96.7231 83.5965 94.7858 74.9746 81.6913 69.1089C75.4992 66.3352 70.704 63.2006 64.3188 60.4623C60.8426 58.9715 58.316 57.2332 52.4668 56.6132C48.3833 56.1804 41.3421 57.4214 36.7793 57.3253C32.7415 57.2403 28.8018 57.0255 24.4124 57.1436" stroke="#C29C9C" stroke-opacity="0.37" stroke-width="30" class="GUSqYjlx_23"></path>
<path d="M263.579 135.822C262.99 130.972 257.365 127.845 248.373 124.684C229.146 117.925 208.486 111.733 186.162 105.986C162.582 99.9151 133.352 95.8218 112.482 88.8562C96.7231 83.5965 94.7858 74.9746 81.6913 69.1089C75.4992 66.3352 70.704 63.2006 64.3188 60.4623C60.8426 58.9715 58.316 57.2332 52.4668 56.6132C48.3833 56.1804 41.3421 57.4214 36.7793 57.3253C32.7415 57.2403 28.8018 57.0255 24.4124 57.1436" stroke="url(#paint16_linear_301_115)" stroke-opacity="0.2" stroke-width="30" class="GUSqYjlx_24"></path>
<path d="M267.55 477.758C268.871 476.715 270.297 476.046 271.81 475.289" stroke="#2069AC" stroke-linecap="round" class="GUSqYjlx_25"></path>
<path d="M251.934 488.116C253.012 488.223 254.029 488.706 255.118 488.788C257.052 488.932 259.429 487.818 261.311 487.056C263.251 486.27 267.9 481.455 264.706 479.532C262.128 477.98 259.939 483.92 260.434 486.259C260.802 487.998 262.246 488.326 263.568 488.376C265.857 488.461 268.502 486.267 270.428 484.807" stroke="#2069AC" stroke-linecap="round" class="GUSqYjlx_26"></path>
<path d="M248.752 479.521C248.096 479.601 249.57 486.999 249.787 487.781C249.835 487.956 249.969 488.94 250.16 489.042C250.217 489.072 251.186 487.539 251.28 487.4C252.973 484.889 254.732 481.308 258.067 480.715" stroke="#2069AC" stroke-linecap="round" class="GUSqYjlx_27"></path>
<path d="M225.403 472.617C225.403 471.861 225.305 474.125 225.25 474.879C225.029 477.853 224.485 480.72 224.064 483.666C223.766 485.746 223.427 487.849 223.427 489.957C223.427 490.573 223.424 489.855 223.438 489.674C223.511 488.687 223.624 487.738 223.624 486.741C223.624 484.228 222.593 480.674 219.77 480.674C217.653 480.674 215.299 480.969 213.236 481.523C212.618 481.688 211.244 481.867 212.578 481.994C214.768 482.202 217.141 482.016 219.32 481.735C222.172 481.366 225.21 481.099 228.072 481.099C229.539 481.099 234.092 480.876 233.661 478.719C233.257 476.697 230.634 477.967 229.708 478.766C228.158 480.103 227.702 483.814 228.961 485.551C229.604 486.439 230.086 487.152 231.223 487.236C232.061 487.298 233.274 487.415 233.815 486.564C235.435 484.014 235.371 479.963 238.251 478.389C239.151 477.897 240.429 477.958 240.776 479.12C241.266 480.758 240.445 482.869 239.283 483.973C237.425 485.737 234.725 482.684 236.274 481.852C237.246 481.331 238.094 482.874 238.547 483.549C239.773 485.373 241.236 487.954 243.071 489.12C244.63 490.111 248.924 488.478 248.924 486.399" stroke="#2069AC" stroke-linecap="round" class="GUSqYjlx_28"></path>
<path d="M216.231 474.445C216.231 473.667 216.231 474.203 216.231 474.671C216.231 477.468 215.807 480.278 215.166 483.019C214.681 485.095 214.345 487.234 214.09 489.341C214.033 489.811 213.569 491.991 214.078 490.466" stroke="#2069AC" stroke-linecap="round" class="GUSqYjlx_29"></path>
<path d="M198.123 477.079C197.941 477.104 197.898 477.42 197.829 477.576C197.45 478.436 197.056 479.249 196.565 480.043C195.384 481.955 194.231 483.829 192.861 485.587C192.09 486.577 191.949 484.505 191.744 483.841C191.387 482.681 190.952 481.538 190.686 480.348C190.42 479.162 189.969 477.281 190.487 476.094C190.968 474.993 192.478 474.783 193.434 474.66C195.307 474.42 196.805 475.058 198.476 475.926C202.417 477.971 203.422 483.194 200.534 486.797C197.831 490.169 193.006 491.365 189.113 490.13C188.083 489.803 187.121 489.188 186.533 488.175C185.579 486.532 186.661 485.423 187.54 484.145" stroke="#2069AC" stroke-linecap="round" class="GUSqYjlx_30"></path>
<defs>
<linearGradient id="paint0_linear_301_115" x1="270.265" y1="73.1505" x2="192.377" y2="240.018" gradientUnits="userSpaceOnUse">
<stop stop-color="white"></stop>
<stop offset="1" stop-color="#171FDB" stop-opacity="0.78"></stop>
</linearGradient>
<linearGradient id="paint1_linear_301_115" x1="47.5095" y1="140.318" x2="62.3289" y2="41.7701" gradientUnits="userSpaceOnUse">
<stop stop-color="#0D8BFF"></stop>
<stop offset="1" stop-color="#FF2E2E" stop-opacity="0.69"></stop>
</linearGradient>
<linearGradient id="paint2_linear_301_115" x1="269.251" y1="96.6978" x2="164.211" y2="272.219" gradientUnits="userSpaceOnUse">
<stop stop-color="white"></stop>
<stop offset="1" stop-color="#171FDB" stop-opacity="0.78"></stop>
</linearGradient>
<linearGradient id="paint3_linear_301_115" x1="260.857" y1="333.903" x2="56.3262" y2="460.356" gradientUnits="userSpaceOnUse">
<stop stop-color="#EBAA2D"></stop>
<stop offset="1" stop-color="#F2F2F2" stop-opacity="0.28"></stop>
</linearGradient>
<linearGradient id="paint4_linear_301_115" x1="265.685" y1="71.3341" x2="48.1308" y2="261.256" gradientUnits="userSpaceOnUse">
<stop stop-color="#EBAA2D"></stop>
<stop offset="1" stop-color="#F2F2F2" stop-opacity="0.28"></stop>
</linearGradient>
<linearGradient id="paint5_linear_301_115" x1="142.587" y1="46.5175" x2="163.63" y2="200.795" gradientUnits="userSpaceOnUse">
<stop stop-color="#FB50C1" stop-opacity="0.27"></stop>
<stop offset="1" stop-color="#F96241" stop-opacity="0.18"></stop>
</linearGradient>
<linearGradient id="paint6_linear_301_115" x1="23.8601" y1="320.788" x2="250.566" y2="404.363" gradientUnits="userSpaceOnUse">
<stop stop-color="#EBAA2D"></stop>
<stop offset="1" stop-color="#F2F2F2" stop-opacity="0.28"></stop>
</linearGradient>
<linearGradient id="paint7_linear_301_115" x1="111.75" y1="267.207" x2="132.786" y2="421.439" gradientUnits="userSpaceOnUse">
<stop stop-color="#FB50C1" stop-opacity="0.27"></stop>
<stop offset="1" stop-color="#F96241" stop-opacity="0.18"></stop>
</linearGradient>
<linearGradient id="paint8_linear_301_115" x1="264.914" y1="72.4293" x2="149.547" y2="259.366" gradientUnits="userSpaceOnUse">
<stop stop-color="#EBAA2D"></stop>
<stop offset="1" stop-color="#F2F2F2" stop-opacity="0.28"></stop>
</linearGradient>
<linearGradient id="paint9_linear_301_115" x1="144.247" y1="66.2616" x2="155.69" y2="150.159" gradientUnits="userSpaceOnUse">
<stop stop-color="#FB50C1" stop-opacity="0.27"></stop>
<stop offset="1" stop-color="#F96241" stop-opacity="0.18"></stop>
</linearGradient>
<linearGradient id="paint10_linear_301_115" x1="145.114" y1="335.141" x2="90.2751" y2="480.057" gradientUnits="userSpaceOnUse">
<stop stop-color="white"></stop>
<stop offset="1" stop-color="#171FDB" stop-opacity="0.78"></stop>
</linearGradient>
<linearGradient id="paint11_linear_301_115" x1="116.801" y1="118.213" x2="70.2313" y2="191.032" gradientUnits="userSpaceOnUse">
<stop stop-color="#FBB226" stop-opacity="0.58"></stop>
<stop offset="1" stop-color="#0D8BFF" stop-opacity="0.14"></stop>
</linearGradient>
<linearGradient id="paint12_linear_301_115" x1="153.309" y1="96.1082" x2="98.4704" y2="241.024" gradientUnits="userSpaceOnUse">
<stop stop-color="white"></stop>
<stop offset="1" stop-color="#171FDB" stop-opacity="0.78"></stop>
</linearGradient>
<linearGradient id="paint13_linear_301_115" x1="176.783" y1="379.614" x2="247.152" y2="302.196" gradientUnits="userSpaceOnUse">
<stop stop-color="#FBB226" stop-opacity="0.58"></stop>
<stop offset="1" stop-color="#0D8BFF" stop-opacity="0.14"></stop>
</linearGradient>
<linearGradient id="paint14_linear_301_115" x1="141.387" y1="410.073" x2="236.619" y2="233.011" gradientUnits="userSpaceOnUse">
<stop stop-color="white"></stop>
<stop offset="1" stop-color="#171FDB" stop-opacity="0.78"></stop>
</linearGradient>
<linearGradient id="paint15_linear_301_115" x1="256.011" y1="348.391" x2="105.612" y2="177.097" gradientUnits="userSpaceOnUse">
<stop stop-color="white"></stop>
<stop offset="1" stop-color="#171FDB" stop-opacity="0.78"></stop>
</linearGradient>
<linearGradient id="paint16_linear_301_115" x1="97.8362" y1="59.0335" x2="112.912" y2="135.872" gradientUnits="userSpaceOnUse">
<stop stop-color="white"></stop>
<stop offset="1" stop-color="#171FDB" stop-opacity="0.78"></stop>
</linearGradient>
</defs>
<style data-made-with="vivus-instant">.GUSqYjlx_0{stroke-dasharray:444 446;stroke-dashoffset:445;animation:GUSqYjlx_draw 4666ms ease-in-out 0ms forwards;}.GUSqYjlx_1{stroke-dasharray:444 446;stroke-dashoffset:445;animation:GUSqYjlx_draw 4666ms ease-in-out 77ms forwards;}.GUSqYjlx_2{stroke-dasharray:449 451;stroke-dashoffset:450;animation:GUSqYjlx_draw 4666ms ease-in-out 155ms forwards;}.GUSqYjlx_3{stroke-dasharray:449 451;stroke-dashoffset:450;animation:GUSqYjlx_draw 4666ms ease-in-out 233ms forwards;}.GUSqYjlx_4{stroke-dasharray:486 488;stroke-dashoffset:487;animation:GUSqYjlx_draw 4666ms ease-in-out 311ms forwards;}.GUSqYjlx_5{stroke-dasharray:486 488;stroke-dashoffset:487;animation:GUSqYjlx_draw 4666ms ease-in-out 388ms forwards;}.GUSqYjlx_6{stroke-dasharray:582 584;stroke-dashoffset:583;animation:GUSqYjlx_draw 4666ms ease-in-out 466ms forwards;}.GUSqYjlx_7{stroke-dasharray:582 584;stroke-dashoffset:583;animation:GUSqYjlx_draw 4666ms ease-in-out 544ms forwards;}.GUSqYjlx_8{stroke-dasharray:582 584;stroke-dashoffset:583;animation:GUSqYjlx_draw 4666ms ease-in-out 622ms forwards;}.GUSqYjlx_9{stroke-dasharray:487 489;stroke-dashoffset:488;animation:GUSqYjlx_draw 4666ms ease-in-out 700ms forwards;}.GUSqYjlx_10{stroke-dasharray:487 489;stroke-dashoffset:488;animation:GUSqYjlx_draw 4666ms ease-in-out 777ms forwards;}.GUSqYjlx_11{stroke-dasharray:487 489;stroke-dashoffset:488;animation:GUSqYjlx_draw 4666ms ease-in-out 855ms forwards;}.GUSqYjlx_12{stroke-dasharray:536 538;stroke-dashoffset:537;animation:GUSqYjlx_draw 4666ms ease-in-out 933ms forwards;}.GUSqYjlx_13{stroke-dasharray:536 538;stroke-dashoffset:537;animation:GUSqYjlx_draw 4666ms ease-in-out 1011ms forwards;}.GUSqYjlx_14{stroke-dasharray:536 538;stroke-dashoffset:537;animation:GUSqYjlx_draw 4666ms ease-in-out 1088ms forwards;}.GUSqYjlx_15{stroke-dasharray:268 270;stroke-dashoffset:269;animation:GUSqYjlx_draw 4666ms ease-in-out 1166ms forwards;}.GUSqYjlx_16{stroke-dasharray:268 270;stroke-dashoffset:269;animation:GUSqYjlx_draw 4666ms ease-in-out 1244ms forwards;}.GUSqYjlx_17{stroke-dasharray:268 270;stroke-dashoffset:269;animation:GUSqYjlx_draw 4666ms ease-in-out 1322ms forwards;}.GUSqYjlx_18{stroke-dasharray:268 270;stroke-dashoffset:269;animation:GUSqYjlx_draw 4666ms ease-in-out 1400ms forwards;}.GUSqYjlx_19{stroke-dasharray:279 281;stroke-dashoffset:280;animation:GUSqYjlx_draw 4666ms ease-in-out 1477ms forwards;}.GUSqYjlx_20{stroke-dasharray:279 281;stroke-dashoffset:280;animation:GUSqYjlx_draw 4666ms ease-in-out 1555ms forwards;}.GUSqYjlx_21{stroke-dasharray:288 290;stroke-dashoffset:289;animation:GUSqYjlx_draw 4666ms ease-in-out 1633ms forwards;}.GUSqYjlx_22{stroke-dasharray:288 290;stroke-dashoffset:289;animation:GUSqYjlx_draw 4666ms ease-in-out 1711ms forwards;}.GUSqYjlx_23{stroke-dasharray:258 260;stroke-dashoffset:259;animation:GUSqYjlx_draw 4666ms ease-in-out 1788ms forwards;}.GUSqYjlx_24{stroke-dasharray:258 260;stroke-dashoffset:259;animation:GUSqYjlx_draw 4666ms ease-in-out 1866ms forwards;}.GUSqYjlx_25{stroke-dasharray:5 7;stroke-dashoffset:6;animation:GUSqYjlx_draw 4666ms ease-in-out 1944ms forwards;}.GUSqYjlx_26{stroke-dasharray:41 43;stroke-dashoffset:42;animation:GUSqYjlx_draw 4666ms ease-in-out 2022ms forwards;}.GUSqYjlx_27{stroke-dasharray:22 24;stroke-dashoffset:23;animation:GUSqYjlx_draw 4666ms ease-in-out 2100ms forwards;}.GUSqYjlx_28{stroke-dasharray:120 122;stroke-dashoffset:121;animation:GUSqYjlx_draw 4666ms ease-in-out 2177ms forwards;}.GUSqYjlx_29{stroke-dasharray:19 21;stroke-dashoffset:20;animation:GUSqYjlx_draw 4666ms ease-in-out 2255ms forwards;}.GUSqYjlx_30{stroke-dasharray:63 65;stroke-dashoffset:64;animation:GUSqYjlx_draw 4666ms ease-in-out 2333ms forwards;}@keyframes GUSqYjlx_draw{100%{stroke-dashoffset:0;}}@keyframes GUSqYjlx_fade{0%{stroke-opacity:1;}96.42857142857143%{stroke-opacity:1;}100%{stroke-opacity:0;}}</style></svg>
