<svg width="218" height="338" viewBox="0 0 218 338" fill="none" xmlns="http://www.w3.org/2000/svg" style="">
<path d="M9.37158 172.888C18.0807 171.381 27.6035 170.649 36.2578 172.888C42.5521 174.517 47.9281 178.58 53.2526 182.149C57.8754 185.248 62.3195 188.51 66.397 192.306C75.9233 201.175 83.4137 212.012 92.553 221.151C93.0714 221.669 93.8736 221.792 94.5446 221.914C96.3529 222.243 98.102 223.885 99.5899 224.868C104.931 228.397 111.104 230.157 116.352 233.831C125.956 240.553 139.544 242.195 150.84 242.195C162.351 242.195 173.935 242.793 185.493 242.793C189.392 242.793 193.586 242.362 197.277 243.722C199.22 244.438 205.057 245.209 205.94 246.975" stroke="url(#paint0_linear_107_174)" stroke-opacity="0.2" stroke-width="3" stroke-linecap="round" class="tfotBOgU_0"></path>
<path d="M10 156.31C18.6396 153.855 28.0865 152.662 36.6717 156.31C42.9158 158.963 48.2489 165.582 53.5309 171.396C58.1168 176.444 62.5255 181.758 66.5704 187.943C76.0207 202.391 83.4514 220.043 92.5177 234.932C93.0319 235.776 93.8278 235.977 94.4934 236.175C96.2873 236.711 98.0224 239.386 99.4985 240.988C104.797 246.737 110.921 249.603 116.127 255.587C125.654 266.539 139.134 269.214 150.339 269.214C161.759 269.214 173.25 270.187 184.716 270.187C188.584 270.187 192.744 269.486 196.406 271.701C198.333 272.867 204.124 274.123 205 277" stroke="url(#paint1_linear_107_174)" stroke-opacity="0.2" stroke-width="10" stroke-linecap="round" class="tfotBOgU_1"></path>
<path d="M10 156.31C18.6396 153.855 28.0865 152.662 36.6717 156.31C42.9158 158.963 48.2489 165.582 53.5309 171.396C58.1168 176.444 62.5255 181.758 66.5704 187.943C76.0207 202.391 83.4514 220.043 92.5177 234.932C93.0319 235.776 93.8278 235.977 94.4934 236.175C96.2873 236.711 98.0224 239.386 99.4985 240.988C104.797 246.737 110.921 249.603 116.127 255.587C125.654 266.539 139.134 269.214 150.339 269.214C161.759 269.214 173.25 270.187 184.716 270.187C188.584 270.187 192.744 269.486 196.406 271.701C198.333 272.867 204.124 274.123 205 277" stroke="#2069AC" stroke-opacity="0.2" stroke-width="10" stroke-linecap="round" class="tfotBOgU_2"></path>
<path d="M9.5942 216.091C22.2478 214.761 30.5921 221.419 41.1293 227.162C48.1394 230.983 55.4768 234.729 62.1426 239.106C66.0053 241.642 72.0213 242.573 76.5746 242.095C77.1528 242.034 80.0764 241.337 80.5029 241.682C80.7853 241.911 77.0457 244.066 76.8296 244.204C71.3475 247.705 64.4659 250.385 58.1546 251.974C48.4849 254.408 36.1205 258.231 27.4341 251.197C23.7949 248.25 21.9014 245.333 19.3397 241.5C17.3458 238.517 14.3287 239.385 11.3725 238.733" stroke="#086DCA" stroke-opacity="0.2" stroke-width="30" class="tfotBOgU_3"></path>
<path d="M9.5942 216.091C22.2478 214.761 30.5921 221.419 41.1293 227.162C48.1394 230.983 55.4768 234.729 62.1426 239.106C66.0053 241.642 72.0213 242.573 76.5746 242.095C77.1528 242.034 80.0764 241.337 80.5029 241.682C80.7853 241.911 77.0457 244.066 76.8296 244.204C71.3475 247.705 64.4659 250.385 58.1546 251.974C48.4849 254.408 36.1205 258.231 27.4341 251.197C23.7949 248.25 21.9014 245.333 19.3397 241.5C17.3458 238.517 14.3287 239.385 11.3725 238.733" stroke="url(#paint2_linear_107_174)" stroke-opacity="0.2" stroke-width="30" class="tfotBOgU_4"></path>
<path d="M185.247 4.59646C185.989 17.298 178.953 25.325 172.727 35.5848C168.585 42.4104 164.504 49.5663 159.823 56.0222C157.11 59.7632 155.901 65.7297 156.168 70.3002C156.202 70.8806 156.763 73.8334 156.399 74.2435C156.157 74.515 154.177 70.6795 154.049 70.4572C150.806 64.8188 148.448 57.8204 147.153 51.4423C145.17 41.6702 141.923 29.1421 149.353 20.7908C152.466 17.2921 155.466 15.5357 159.414 13.1543C162.486 11.3008 161.759 8.24673 162.547 5.32388" stroke="#086DCA" stroke-opacity="0.2" stroke-width="30" class="tfotBOgU_5"></path>
<path d="M185.247 4.59646C185.989 17.298 178.953 25.325 172.727 35.5848C168.585 42.4104 164.504 49.5663 159.823 56.0222C157.11 59.7632 155.901 65.7297 156.168 70.3002C156.202 70.8806 156.763 73.8334 156.399 74.2435C156.157 74.515 154.177 70.6795 154.049 70.4572C150.806 64.8188 148.448 57.8204 147.153 51.4423C145.17 41.6702 141.923 29.1421 149.353 20.7908C152.466 17.2921 155.466 15.5357 159.414 13.1543C162.486 11.3008 161.759 8.24673 162.547 5.32388" stroke="url(#paint3_linear_107_174)" stroke-opacity="0.2" stroke-width="30" class="tfotBOgU_6"></path>
<path d="M207.48 214.45C173.615 213.24 152.871 226.731 126.114 238.717C108.313 246.69 89.6282 254.554 72.8585 263.547C63.141 268.758 47.3697 271.148 35.1838 270.712C33.6363 270.657 25.7296 269.638 24.6704 270.337C23.969 270.8 34.3488 274.5 34.9515 274.739C50.2397 280.81 69.0695 285.179 86.1555 287.537C112.333 291.151 145.956 297.12 167.529 282.878C176.566 276.911 180.978 271.184 186.969 263.649C191.632 257.785 199.823 259.118 207.532 257.575" stroke="#E7922E" stroke-opacity="0.08" stroke-width="30" class="tfotBOgU_7"></path>
<path d="M207.48 214.45C173.615 213.24 152.871 226.731 126.114 238.717C108.313 246.69 89.6282 254.554 72.8585 263.547C63.141 268.758 47.3697 271.148 35.1838 270.712C33.6363 270.657 25.7296 269.638 24.6704 270.337C23.969 270.8 34.3488 274.5 34.9515 274.739C50.2397 280.81 69.0695 285.179 86.1555 287.537C112.333 291.151 145.956 297.12 167.529 282.878C176.566 276.911 180.978 271.184 186.969 263.649C191.632 257.785 199.823 259.118 207.532 257.575" stroke="url(#paint4_linear_107_174)" stroke-opacity="0.2" stroke-width="30" class="tfotBOgU_8"></path>
<path d="M9 160C17.8069 160 24.6535 162.673 32.3101 167.059C48.6823 176.438 64.3579 186.582 79.6106 197.602C95.721 209.242 109.553 223.883 126.66 234.086C139.578 241.791 155.432 242.244 168.841 248.554C175.181 251.537 181.856 253.787 188.176 256.871C191.617 258.55 195.289 259.73 197.701 262.672C199.384 264.726 198.733 268.391 199.921 270.71C200.972 272.762 202.234 274.756 203 277" stroke="#C29C9C" stroke-opacity="0.37" stroke-width="30" class="tfotBOgU_9"></path>
<path d="M9 160C17.8069 160 24.6535 162.673 32.3101 167.059C48.6823 176.438 64.3579 186.582 79.6106 197.602C95.721 209.242 109.553 223.883 126.66 234.086C139.578 241.791 155.432 242.244 168.841 248.554C175.181 251.537 181.856 253.787 188.176 256.871C191.617 258.55 195.289 259.73 197.701 262.672C199.384 264.726 198.733 268.391 199.921 270.71C200.972 272.762 202.234 274.756 203 277" stroke="url(#paint5_linear_107_174)" stroke-opacity="0.2" stroke-width="30" class="tfotBOgU_10"></path>
<path d="M210.4 167.091C197.624 165.761 189.2 172.419 178.561 178.162C171.483 181.983 164.075 185.729 157.345 190.106C153.445 192.642 147.371 193.573 142.773 193.095C142.19 193.034 139.238 192.337 138.807 192.682C138.522 192.911 142.298 195.066 142.516 195.204C148.051 198.705 154.999 201.385 161.371 202.974C171.134 205.408 183.618 209.231 192.388 202.197C196.062 199.25 197.974 196.333 200.561 192.5C202.574 189.517 205.62 190.385 208.605 189.733" stroke="#086DCA" stroke-opacity="0.2" stroke-width="30" class="tfotBOgU_11"></path>
<path d="M210.4 167.091C197.624 165.761 189.2 172.419 178.561 178.162C171.483 181.983 164.075 185.729 157.345 190.106C153.445 192.642 147.371 193.573 142.773 193.095C142.19 193.034 139.238 192.337 138.807 192.682C138.522 192.911 142.298 195.066 142.516 195.204C148.051 198.705 154.999 201.385 161.371 202.974C171.134 205.408 183.618 209.231 192.388 202.197C196.062 199.25 197.974 196.333 200.561 192.5C202.574 189.517 205.62 190.385 208.605 189.733" stroke="url(#paint6_linear_107_174)" stroke-opacity="0.2" stroke-width="30" class="tfotBOgU_12"></path>
<path d="M10.6056 127.45C44.7971 126.24 65.7412 139.731 92.7563 151.717C110.729 159.69 129.594 167.554 146.525 176.547C156.337 181.758 172.26 184.148 184.564 183.712C186.126 183.657 194.109 182.638 195.178 183.337C195.887 183.8 185.407 187.5 184.798 187.739C169.362 193.81 150.351 198.179 133.1 200.537C106.67 204.151 72.7225 210.12 50.9419 195.878C41.8169 189.911 37.3633 184.184 31.314 176.649C26.6059 170.785 18.336 172.118 10.5528 170.575" stroke="#E7922E" stroke-opacity="0.08" stroke-width="30" class="tfotBOgU_13"></path>
<path d="M10.6056 127.45C44.7971 126.24 65.7412 139.731 92.7563 151.717C110.729 159.69 129.594 167.554 146.525 176.547C156.337 181.758 172.26 184.148 184.564 183.712C186.126 183.657 194.109 182.638 195.178 183.337C195.887 183.8 185.407 187.5 184.798 187.739C169.362 193.81 150.351 198.179 133.1 200.537C106.67 204.151 72.7225 210.12 50.9419 195.878C41.8169 189.911 37.3633 184.184 31.314 176.649C26.6059 170.785 18.336 172.118 10.5528 170.575" stroke="url(#paint7_linear_107_174)" stroke-opacity="0.2" stroke-width="30" class="tfotBOgU_14"></path>
<path d="M209.538 19.0425C183.938 19.948 168.929 28.5116 149.314 36.5098C136.264 41.8308 122.542 47.1311 110.319 52.9772C103.235 56.3648 91.4526 58.4485 82.2405 58.7743C81.0707 58.8157 75.0586 58.6122 74.2927 59.0554C73.7856 59.3488 81.7898 60.9447 82.2557 61.0512C94.0743 63.7518 108.484 65.3287 121.483 65.8557C141.399 66.6631 167.042 68.4476 182.64 59.4224C189.175 55.6414 192.231 52.212 196.394 47.691C199.634 44.1723 205.875 44.5388 211.617 43.3094" stroke="#E7922E" stroke-opacity="0.08" stroke-width="30" class="tfotBOgU_15"></path>
<path d="M209.538 19.0425C183.938 19.948 168.929 28.5116 149.314 36.5098C136.264 41.8308 122.542 47.1311 110.319 52.9772C103.235 56.3648 91.4526 58.4485 82.2405 58.7743C81.0707 58.8157 75.0586 58.6122 74.2927 59.0554C73.7856 59.3488 81.7898 60.9447 82.2557 61.0512C94.0743 63.7518 108.484 65.3287 121.483 65.8557C141.399 66.6631 167.042 68.4476 182.64 59.4224C189.175 55.6414 192.231 52.212 196.394 47.691C199.634 44.1723 205.875 44.5388 211.617 43.3094" stroke="url(#paint8_linear_107_174)" stroke-opacity="0.2" stroke-width="30" class="tfotBOgU_16"></path>
<path d="M211 135C202.102 135 195.185 137.673 187.45 142.059C170.909 151.438 155.071 161.582 139.661 172.602C123.385 184.242 109.411 198.883 92.1266 209.086C79.0756 216.791 63.0582 217.244 49.5116 223.554C43.1058 226.537 36.3621 228.787 29.9767 231.871C26.5004 233.55 22.7905 234.73 20.354 237.672C18.653 239.726 19.3114 243.391 18.1111 245.71C17.0489 247.762 15.7743 249.756 15 252" stroke="#C29C9C" stroke-opacity="0.37" stroke-width="30" class="tfotBOgU_17"></path>
<path d="M211 135C202.102 135 195.185 137.673 187.45 142.059C170.909 151.438 155.071 161.582 139.661 172.602C123.385 184.242 109.411 198.883 92.1266 209.086C79.0756 216.791 63.0582 217.244 49.5116 223.554C43.1058 226.537 36.3621 228.787 29.9767 231.871C26.5004 233.55 22.7905 234.73 20.354 237.672C18.653 239.726 19.3114 243.391 18.1111 245.71C17.0489 247.762 15.7743 249.756 15 252" stroke="url(#paint9_linear_107_174)" stroke-opacity="0.2" stroke-width="30" class="tfotBOgU_18"></path>
<path d="M210 64C206.686 64 204.11 62.6292 201.229 60.3799C195.068 55.5703 189.169 50.3679 183.43 44.7168C177.368 38.7479 172.163 31.2397 165.726 26.0072C160.865 22.0561 154.899 21.8234 149.854 18.5878C147.468 17.0578 144.956 15.9042 142.578 14.3226C141.283 13.4615 139.902 12.8564 138.994 11.3477C138.361 10.2943 138.606 8.41506 138.159 7.22581C137.763 6.1734 137.288 5.15074 137 4" stroke="#C29C9C" stroke-opacity="0.37" stroke-width="30" class="tfotBOgU_19"></path>
<path d="M210 64C206.686 64 204.11 62.6292 201.229 60.3799C195.068 55.5703 189.169 50.3679 183.43 44.7168C177.368 38.7479 172.163 31.2397 165.726 26.0072C160.865 22.0561 154.899 21.8234 149.854 18.5878C147.468 17.0578 144.956 15.9042 142.578 14.3226C141.283 13.4615 139.902 12.8564 138.994 11.3477C138.361 10.2943 138.606 8.41506 138.159 7.22581C137.763 6.1734 137.288 5.15074 137 4" stroke="url(#paint10_linear_107_174)" stroke-opacity="0.2" stroke-width="30" class="tfotBOgU_20"></path>
<path d="M142.989 318.684C142.18 321.73 140.283 324.854 137.898 327.136C136.882 328.108 136.336 328.671 135.039 327.648C134.154 326.95 133.659 325.985 133.405 324.959C133.201 324.134 132.875 322.989 133.263 322.17C133.604 321.45 134.368 321.178 135.133 320.96C136.48 320.577 137.731 320.006 139.139 319.794C140.241 319.627 141.539 319.632 142.619 319.915C143.548 320.158 144.08 320.888 144.693 321.508C146.47 323.306 146.469 325.392 144.615 327.072C141.776 329.642 138.342 330.061 134.442 329.747C132.732 329.609 131.021 329.279 129.367 328.864C128.976 328.766 128.141 328.672 128 328.288" stroke="#2069AC" stroke-width="0.3" stroke-linecap="round" class="tfotBOgU_21"></path>
<path d="M151.056 333.721C153.001 331.654 154.926 329.346 155.926 326.749C156.6 324.999 157.236 323.215 157.953 321.484C158.359 320.504 158.826 319.61 159.54 318.802C159.924 318.367 160.103 319.811 160.105 319.834C160.284 321.213 160.247 322.602 160.247 323.988C160.247 324.624 160.247 325.259 160.247 325.895C160.247 326.064 160.068 326.501 160.184 326.606C160.94 327.291 161.755 323 161.802 322.736C162.042 321.413 162.208 320.172 162.996 319.051C163.86 317.821 164.032 319.943 164.057 320.545C164.112 321.89 164.139 323.286 164.033 324.629C163.945 325.752 163.64 326.827 163.64 327.958C163.64 328.26 163.443 329.367 164.002 329.367C165.318 329.367 166.365 327.9 167.066 327.062C167.399 326.663 167.453 326.224 167.741 325.81C167.941 325.522 167.883 325.311 167.883 325.81C167.883 326.415 167.67 328.858 169.155 328.186C170.004 327.801 170.19 326.827 170.498 326.101C170.65 325.743 170.992 324.753 171.425 325.603C171.747 326.234 171.941 327.008 171.983 327.702C172.035 328.553 172.377 327.801 172.627 327.51C172.966 327.115 173.303 326.493 173.57 326.037C173.701 325.813 173.89 324.744 174.308 325.34C175.013 326.343 174.087 329.208 176.013 329.36C177.241 329.456 178.681 328.309 178.975 327.261C179.149 326.637 179.536 325.877 179.163 325.269C178.754 324.602 177.83 324.949 177.576 325.539C177.269 326.255 177.592 327.217 178.063 327.802C178.518 328.365 179.73 328.787 180.263 328.129C180.895 327.349 180.981 326.392 181.166 325.468C181.178 325.413 181.148 324.942 181.206 324.942C181.472 324.942 182.323 325.827 182.573 325.966C183.576 326.524 184.844 327.132 185.126 328.278C185.317 329.057 183.525 329.469 183.013 329.111C182.471 328.732 182.019 327.956 181.457 327.702" stroke="#2069AC" stroke-width="0.3" stroke-linecap="round" class="tfotBOgU_22"></path>
<path d="M188.527 325.781C187.386 325.781 186.886 326.417 186.343 327.311C186.164 327.606 185.765 328.19 186.061 328.534C186.693 329.271 187.401 329.49 188.174 328.791C188.672 328.339 188.655 327.392 188.81 326.806C188.864 326.603 189.093 324.843 189.093 325.625C189.093 326.477 188.711 327.83 190.051 327.83C191.524 327.83 191.638 326.45 192.204 325.461C192.437 325.054 192.543 324.373 193.123 324.373C193.707 324.373 194.011 324.662 194.246 325.148C194.54 325.756 194.608 326.422 194.608 327.076C194.608 327.372 194.518 328.06 195.032 328.086C196.013 328.136 196.535 327.367 197.011 326.706C197.293 326.316 197.332 324.972 197.082 324.565C196.597 323.774 196.163 324.712 196.163 325.212C196.163 325.695 195.946 326.769 196.336 327.161C196.967 327.796 196.87 326.108 196.87 325.781C196.87 325.711 196.853 325.469 196.87 325.682C196.914 326.223 197.341 326.767 197.577 327.254C198.31 328.766 198.63 330.142 198.7 331.807C198.774 333.528 198.31 334.855 196.572 335.706C194.327 336.804 191.057 337.997 188.551 336.922C186.647 336.106 187.729 334.29 188.732 333.18C189.917 331.868 191.595 330.942 193.076 329.929C194.93 328.661 196.65 327.29 198.425 325.938C201.969 323.24 206.137 321.568 208.889 318.069C209.804 316.906 210.622 315.681 211.529 314.512C211.672 314.328 211.791 314.095 212 314" stroke="#2069AC" stroke-width="0.3" stroke-linecap="round" class="tfotBOgU_23"></path>
<path d="M149.642 328.214C148.923 328.214 148.309 327.958 147.662 327.958" stroke="#2069AC" stroke-width="0.3" stroke-linecap="round" class="tfotBOgU_24"></path>
<defs>
<linearGradient id="paint0_linear_107_174" x1="107.656" y1="171.47" x2="166.5" y2="289" gradientUnits="userSpaceOnUse">
<stop stop-color="#2069AC" stop-opacity="0.85"></stop>
<stop offset="1" stop-color="#032A4F"></stop>
</linearGradient>
<linearGradient id="paint1_linear_107_174" x1="107.5" y1="154" x2="224.968" y2="296.875" gradientUnits="userSpaceOnUse">
<stop stop-color="#0D8BFF"></stop>
<stop offset="1"></stop>
</linearGradient>
<linearGradient id="paint2_linear_107_174" x1="43.0405" y1="212.577" x2="81" y2="263" gradientUnits="userSpaceOnUse">
<stop stop-color="white"></stop>
<stop offset="1" stop-color="#171FDB" stop-opacity="0.78"></stop>
</linearGradient>
<linearGradient id="paint3_linear_107_174" x1="187.208" y1="38.1697" x2="135.081" y2="73.7524" gradientUnits="userSpaceOnUse">
<stop stop-color="white"></stop>
<stop offset="1" stop-color="#171FDB" stop-opacity="0.78"></stop>
</linearGradient>
<linearGradient id="paint4_linear_107_174" x1="201.5" y1="235.5" x2="63.5905" y2="352.833" gradientUnits="userSpaceOnUse">
<stop stop-color="#EBAA2D"></stop>
<stop offset="1" stop-color="#F2F2F2" stop-opacity="0.28"></stop>
</linearGradient>
<linearGradient id="paint5_linear_107_174" x1="106" y1="160" x2="194.853" y2="311.607" gradientUnits="userSpaceOnUse">
<stop stop-color="white"></stop>
<stop offset="1" stop-color="#171FDB" stop-opacity="0.78"></stop>
</linearGradient>
<linearGradient id="paint6_linear_107_174" x1="176.631" y1="163.577" x2="138.774" y2="214.349" gradientUnits="userSpaceOnUse">
<stop stop-color="white"></stop>
<stop offset="1" stop-color="#171FDB" stop-opacity="0.78"></stop>
</linearGradient>
<linearGradient id="paint7_linear_107_174" x1="16.6429" y1="148.5" x2="154.758" y2="267.142" gradientUnits="userSpaceOnUse">
<stop stop-color="#EBAA2D"></stop>
<stop offset="1" stop-color="#F2F2F2" stop-opacity="0.28"></stop>
</linearGradient>
<linearGradient id="paint8_linear_107_174" x1="206.023" y1="31.169" x2="135.126" y2="124.587" gradientUnits="userSpaceOnUse">
<stop stop-color="#EBAA2D"></stop>
<stop offset="1" stop-color="#F2F2F2" stop-opacity="0.28"></stop>
</linearGradient>
<linearGradient id="paint9_linear_107_174" x1="113" y1="135" x2="24.5946" y2="287.398" gradientUnits="userSpaceOnUse">
<stop stop-color="white"></stop>
<stop offset="1" stop-color="#171FDB" stop-opacity="0.78"></stop>
</linearGradient>
<linearGradient id="paint10_linear_107_174" x1="173.5" y1="64" x2="122.566" y2="0.230459" gradientUnits="userSpaceOnUse">
<stop stop-color="white"></stop>
<stop offset="1" stop-color="#171FDB" stop-opacity="0.78"></stop>
</linearGradient>
</defs>
<style data-made-with="vivus-instant">.tfotBOgU_0{stroke-dasharray:222 224;stroke-dashoffset:223;animation:tfotBOgU_draw 427ms ease-in-out 0ms forwards;}.tfotBOgU_1{stroke-dasharray:252 254;stroke-dashoffset:253;animation:tfotBOgU_draw 485ms ease-in-out 427ms forwards;}.tfotBOgU_2{stroke-dasharray:252 254;stroke-dashoffset:253;animation:tfotBOgU_draw 485ms ease-in-out 913ms forwards;}.tfotBOgU_3{stroke-dasharray:156 158;stroke-dashoffset:157;animation:tfotBOgU_draw 301ms ease-in-out 1398ms forwards;}.tfotBOgU_4{stroke-dasharray:156 158;stroke-dashoffset:157;animation:tfotBOgU_draw 301ms ease-in-out 1699ms forwards;}.tfotBOgU_5{stroke-dasharray:156 158;stroke-dashoffset:157;animation:tfotBOgU_draw 301ms ease-in-out 2001ms forwards;}.tfotBOgU_6{stroke-dasharray:156 158;stroke-dashoffset:157;animation:tfotBOgU_draw 301ms ease-in-out 2302ms forwards;}.tfotBOgU_7{stroke-dasharray:391 393;stroke-dashoffset:392;animation:tfotBOgU_draw 752ms ease-in-out 2603ms forwards;}.tfotBOgU_8{stroke-dasharray:391 393;stroke-dashoffset:392;animation:tfotBOgU_draw 752ms ease-in-out 3355ms forwards;}.tfotBOgU_9{stroke-dasharray:234 236;stroke-dashoffset:235;animation:tfotBOgU_draw 450ms ease-in-out 4107ms forwards;}.tfotBOgU_10{stroke-dasharray:234 236;stroke-dashoffset:235;animation:tfotBOgU_draw 450ms ease-in-out 4558ms forwards;}.tfotBOgU_11{stroke-dasharray:157 159;stroke-dashoffset:158;animation:tfotBOgU_draw 303ms ease-in-out 5009ms forwards;}.tfotBOgU_12{stroke-dasharray:157 159;stroke-dashoffset:158;animation:tfotBOgU_draw 303ms ease-in-out 5312ms forwards;}.tfotBOgU_13{stroke-dasharray:395 397;stroke-dashoffset:396;animation:tfotBOgU_draw 759ms ease-in-out 5615ms forwards;}.tfotBOgU_14{stroke-dasharray:395 397;stroke-dashoffset:396;animation:tfotBOgU_draw 759ms ease-in-out 6375ms forwards;}.tfotBOgU_15{stroke-dasharray:287 289;stroke-dashoffset:288;animation:tfotBOgU_draw 552ms ease-in-out 7135ms forwards;}.tfotBOgU_16{stroke-dasharray:287 289;stroke-dashoffset:288;animation:tfotBOgU_draw 552ms ease-in-out 7688ms forwards;}.tfotBOgU_17{stroke-dasharray:235 237;stroke-dashoffset:236;animation:tfotBOgU_draw 452ms ease-in-out 8240ms forwards;}.tfotBOgU_18{stroke-dasharray:235 237;stroke-dashoffset:236;animation:tfotBOgU_draw 452ms ease-in-out 8693ms forwards;}.tfotBOgU_19{stroke-dasharray:98 100;stroke-dashoffset:99;animation:tfotBOgU_draw 189ms ease-in-out 9146ms forwards;}.tfotBOgU_20{stroke-dasharray:98 100;stroke-dashoffset:99;animation:tfotBOgU_draw 189ms ease-in-out 9336ms forwards;}.tfotBOgU_21{stroke-dasharray:56 58;stroke-dashoffset:57;animation:tfotBOgU_draw 109ms ease-in-out 9526ms forwards;}.tfotBOgU_22{stroke-dasharray:97 99;stroke-dashoffset:98;animation:tfotBOgU_draw 188ms ease-in-out 9635ms forwards;}.tfotBOgU_23{stroke-dasharray:88 90;stroke-dashoffset:89;animation:tfotBOgU_draw 170ms ease-in-out 9823ms forwards;}.tfotBOgU_24{stroke-dasharray:2 4;stroke-dashoffset:3;animation:tfotBOgU_draw 5ms ease-in-out 9994ms forwards;}@keyframes tfotBOgU_draw{100%{stroke-dashoffset:0;}}@keyframes tfotBOgU_fade{0%{stroke-opacity:1;}97.1830985915493%{stroke-opacity:1;}100%{stroke-opacity:0;}}</style></svg>
