<svg width="160" height="66" viewBox="0 0 160 66" fill="none" xmlns="http://www.w3.org/2000/svg" style="">
<path d="M126.737 19.0886C106.406 21.8616 94.4882 25.298 78.9123 29.0692C68.5501 31.5781 57.6539 34.1498 47.9477 36.6942C42.3233 38.1686 32.9661 39.8206 25.6501 40.8185C24.7211 40.9452 19.9464 41.5026 19.3383 41.6793C18.9356 41.7964 25.2928 41.3529 25.6628 41.3302C35.0497 40.753 46.4938 39.6625 56.8175 38.4769C72.6349 36.6604 93.0005 34.4894 105.386 30.8898C110.575 29.3818 113.001 28.3021 116.306 26.8653C118.878 25.747 123.835 25.2033 128.394 24.35" stroke="#E7922E" stroke-opacity="0.08" stroke-width="38" stroke-linecap="round" class="SSeXcrjQ_0"></path>
<path d="M126.737 19.0886C106.406 21.8616 94.4882 25.298 78.9123 29.0692C68.5501 31.5781 57.6539 34.1498 47.9477 36.6942C42.3233 38.1686 32.9661 39.8206 25.6501 40.8185C24.7211 40.9452 19.9464 41.5026 19.3383 41.6793C18.9356 41.7964 25.2928 41.3529 25.6628 41.3302C35.0497 40.753 46.4938 39.6625 56.8175 38.4769C72.6349 36.6604 93.0005 34.4894 105.386 30.8898C110.575 29.3818 113.001 28.3021 116.306 26.8653C118.878 25.747 123.835 25.2033 128.394 24.35" stroke="url(#paint0_linear_304_5)" stroke-opacity="0.2" stroke-width="38" stroke-linecap="round" class="SSeXcrjQ_1"></path>
<path d="M126.737 19.0886C106.406 21.8616 94.4882 25.298 78.9123 29.0692C68.5501 31.5781 57.6539 34.1498 47.9477 36.6942C42.3233 38.1686 32.9661 39.8206 25.6501 40.8185C24.7211 40.9452 19.9464 41.5026 19.3383 41.6793C18.9356 41.7964 25.2928 41.3529 25.6628 41.3302C35.0497 40.753 46.4938 39.6625 56.8175 38.4769C72.6349 36.6604 93.0005 34.4894 105.386 30.8898C110.575 29.3818 113.001 28.3021 116.306 26.8653C118.878 25.747 123.835 25.2033 128.394 24.35" stroke="url(#paint1_linear_304_5)" stroke-width="38" stroke-linecap="round" class="SSeXcrjQ_2"></path>
<path d="M140.841 28.614C120.89 33.4077 108.537 34.4313 92.6528 36.4795C82.0858 37.8422 70.9983 39.3406 61.0296 40.4253C55.253 41.0538 45.9339 42.8894 38.7545 44.6143C37.8428 44.8334 33.1914 46.0517 32.5605 46.1025C32.1428 46.1362 38.2273 44.2195 38.5803 44.1049C47.5363 41.1982 58.5958 38.036 68.6459 35.3824C84.044 31.3169 103.809 25.9166 116.657 24.8806C122.04 24.4466 124.694 24.613 128.295 24.8064C131.098 24.9569 135.914 23.6576 140.473 22.8108" stroke="#E7922E" stroke-opacity="0.08" stroke-width="38" stroke-linecap="round" class="SSeXcrjQ_3"></path>
<path d="M140.841 28.614C120.89 33.4077 108.537 34.4313 92.6528 36.4795C82.0858 37.8422 70.9983 39.3406 61.0296 40.4253C55.253 41.0538 45.9339 42.8894 38.7545 44.6143C37.8428 44.8334 33.1914 46.0517 32.5605 46.1025C32.1428 46.1362 38.2273 44.2195 38.5803 44.1049C47.5363 41.1982 58.5958 38.036 68.6459 35.3824C84.044 31.3169 103.809 25.9166 116.657 24.8806C122.04 24.4466 124.694 24.613 128.295 24.8064C131.098 24.9569 135.914 23.6576 140.473 22.8108" stroke="url(#paint2_linear_304_5)" stroke-opacity="0.2" stroke-width="38" stroke-linecap="round" class="SSeXcrjQ_4"></path>
<path d="M140.841 28.614C120.89 33.4077 108.537 34.4313 92.6528 36.4795C82.0858 37.8422 70.9983 39.3406 61.0296 40.4253C55.253 41.0538 45.9339 42.8894 38.7545 44.6143C37.8428 44.8334 33.1914 46.0517 32.5605 46.1025C32.1428 46.1362 38.2273 44.2195 38.5803 44.1049C47.5363 41.1982 58.5958 38.036 68.6459 35.3824C84.044 31.3169 103.809 25.9166 116.657 24.8806C122.04 24.4466 124.694 24.613 128.295 24.8064C131.098 24.9569 135.914 23.6576 140.473 22.8108" stroke="url(#paint3_linear_304_5)" stroke-width="38" stroke-linecap="round" class="SSeXcrjQ_5"></path>
<path d="M134.291 44.3385C113.799 43.2722 101.663 40.7476 85.8513 38.2033C75.3321 36.5107 64.2754 34.8006 54.4087 33.0113C48.6913 31.9745 39.2345 31.0895 31.8607 30.7058C30.9243 30.6571 26.1184 30.5051 25.499 30.3748C25.0889 30.2886 31.4672 30.1776 31.8383 30.1679C41.251 29.9227 52.7531 30.0295 63.1431 30.3376C79.0619 30.8096 99.5467 31.2412 112.161 33.8946C117.446 35.0062 119.943 35.9189 123.341 37.1265C125.986 38.0664 130.973 38.1875 135.585 38.6693" stroke="#E7922E" stroke-opacity="0.08" stroke-width="38" stroke-linecap="round" class="SSeXcrjQ_6"></path>
<path d="M134.291 44.3385C113.799 43.2722 101.663 40.7476 85.8513 38.2033C75.3321 36.5107 64.2754 34.8006 54.4087 33.0113C48.6913 31.9745 39.2345 31.0895 31.8607 30.7058C30.9243 30.6571 26.1184 30.5051 25.499 30.3748C25.0889 30.2886 31.4672 30.1776 31.8383 30.1679C41.251 29.9227 52.7531 30.0295 63.1431 30.3376C79.0619 30.8096 99.5467 31.2412 112.161 33.8946C117.446 35.0062 119.943 35.9189 123.341 37.1265C125.986 38.0664 130.973 38.1875 135.585 38.6693" stroke="url(#paint4_linear_304_5)" stroke-width="38" stroke-linecap="round" class="SSeXcrjQ_7"></path>
<path d="M134.291 44.3385C113.799 43.2722 101.663 40.7476 85.8513 38.2033C75.3321 36.5107 64.2754 34.8006 54.4087 33.0113C48.6913 31.9745 39.2345 31.0895 31.8607 30.7058C30.9243 30.6571 26.1184 30.5051 25.499 30.3748C25.0889 30.2886 31.4672 30.1776 31.8383 30.1679C41.251 29.9227 52.7531 30.0295 63.1431 30.3376C79.0619 30.8096 99.5467 31.2412 112.161 33.8946C117.446 35.0062 119.943 35.9189 123.341 37.1265C125.986 38.0664 130.973 38.1875 135.585 38.6693" stroke="url(#paint5_linear_304_5)" stroke-opacity="0.2" stroke-width="38" stroke-linecap="round" class="SSeXcrjQ_8"></path>
<defs>
<linearGradient id="paint0_linear_304_5" x1="123.949" y1="22.1747" x2="121.018" y2="55.0961" gradientUnits="userSpaceOnUse">
<stop stop-color="#EBAA2D"></stop>
<stop offset="1" stop-color="#F2F2F2" stop-opacity="0.28"></stop>
</linearGradient>
<linearGradient id="paint1_linear_304_5" x1="72.9966" y1="26.4183" x2="74.3651" y2="36.4518" gradientUnits="userSpaceOnUse">
<stop stop-color="#FB50C1" stop-opacity="0.27"></stop>
<stop offset="1" stop-color="#F96241" stop-opacity="0.18"></stop>
</linearGradient>
<linearGradient id="paint2_linear_304_5" x1="137.122" y1="26.6025" x2="121.4" y2="-4.26235" gradientUnits="userSpaceOnUse">
<stop stop-color="#EBAA2D"></stop>
<stop offset="1" stop-color="#F2F2F2" stop-opacity="0.28"></stop>
</linearGradient>
<linearGradient id="paint3_linear_304_5" x1="88.1046" y1="41.2848" x2="85.612" y2="30.9107" gradientUnits="userSpaceOnUse">
<stop stop-color="#FB50C1" stop-opacity="0.27"></stop>
<stop offset="1" stop-color="#F96241" stop-opacity="0.18"></stop>
</linearGradient>
<linearGradient id="paint4_linear_304_5" x1="-1.9077" y1="34.6702" x2="87.6652" y2="11.1565" gradientUnits="userSpaceOnUse">
<stop stop-color="#0D8BFF" stop-opacity="0.26"></stop>
<stop offset="1" stop-color="#F96241" stop-opacity="0.18"></stop>
</linearGradient>
<linearGradient id="paint5_linear_304_5" x1="131.295" y1="41.354" x2="124.98" y2="7.29613" gradientUnits="userSpaceOnUse">
<stop stop-color="#EBAA2D"></stop>
<stop offset="1" stop-color="#F2F2F2" stop-opacity="0.28"></stop>
</linearGradient>
</defs>
<style data-made-with="vivus-instant">.SSeXcrjQ_0{stroke-dasharray:221 223;stroke-dashoffset:222;animation:SSeXcrjQ_draw 2666ms ease-in-out 0ms forwards;}.SSeXcrjQ_1{stroke-dasharray:221 223;stroke-dashoffset:222;animation:SSeXcrjQ_draw 2666ms ease-in-out 166ms forwards;}.SSeXcrjQ_2{stroke-dasharray:221 223;stroke-dashoffset:222;animation:SSeXcrjQ_draw 2666ms ease-in-out 333ms forwards;}.SSeXcrjQ_3{stroke-dasharray:221 223;stroke-dashoffset:222;animation:SSeXcrjQ_draw 2666ms ease-in-out 500ms forwards;}.SSeXcrjQ_4{stroke-dasharray:221 223;stroke-dashoffset:222;animation:SSeXcrjQ_draw 2666ms ease-in-out 666ms forwards;}.SSeXcrjQ_5{stroke-dasharray:221 223;stroke-dashoffset:222;animation:SSeXcrjQ_draw 2666ms ease-in-out 833ms forwards;}.SSeXcrjQ_6{stroke-dasharray:221 223;stroke-dashoffset:222;animation:SSeXcrjQ_draw 2666ms ease-in-out 1000ms forwards;}.SSeXcrjQ_7{stroke-dasharray:221 223;stroke-dashoffset:222;animation:SSeXcrjQ_draw 2666ms ease-in-out 1166ms forwards;}.SSeXcrjQ_8{stroke-dasharray:221 223;stroke-dashoffset:222;animation:SSeXcrjQ_draw 2666ms ease-in-out 1333ms forwards;}@keyframes SSeXcrjQ_draw{100%{stroke-dashoffset:0;}}@keyframes SSeXcrjQ_fade{0%{stroke-opacity:1;}95.1219512195122%{stroke-opacity:1;}100%{stroke-opacity:0;}}</style></svg>
